<svg width="96" height="96" viewBox="0 0 96 96" fill="none" xmlns="http://www.w3.org/2000/svg">
<g clip-path="url(#clip0_582_771)">
<path d="M62.2 52C65.2 52 67.84 50.36 69.2 47.88L83.52 21.92C85 19.28 83.08 16 80.04 16H20.84L17.08 8H4V16H12L26.4 46.36L21 56.12C18.08 61.48 21.92 68 28 68H76V60H28L32.4 52H62.2ZM24.64 24H73.24L62.2 44H34.12L24.64 24ZM28 72C23.6 72 20.04 75.6 20.04 80C20.04 84.4 23.6 88 28 88C32.4 88 36 84.4 36 80C36 75.6 32.4 72 28 72ZM68 72C63.6 72 60.04 75.6 60.04 80C60.04 84.4 63.6 88 68 88C72.4 88 76 84.4 76 80C76 75.6 72.4 72 68 72Z" fill="black"/>
</g>
<defs>
<clipPath id="clip0_582_771">
<rect width="96" height="96" fill="white"/>
</clipPath>
</defs>
</svg>
