<svg width="80" height="80" viewBox="0 0 80 80" fill="none" xmlns="http://www.w3.org/2000/svg">
<g clip-path="url(#clip0_363_1846)">
<rect width="80" height="80" fill="white"/>
<path d="M40 0C17.92 0 0 17.92 0 40C0 62.08 17.92 80 40 80C62.08 80 80 62.08 80 40C80 17.92 62.08 0 40 0ZM21.4 66C26.64 62.24 33.04 60 40 60C46.96 60 53.36 62.24 58.6 66C53.36 69.76 46.96 72 40 72C33.04 72 26.64 69.76 21.4 66ZM64.56 60.48C57.8 55.2 49.28 52 40 52C30.72 52 22.2 55.2 15.44 60.48C10.8 54.92 8 47.8 8 40C8 22.32 22.32 8 40 8C57.68 8 72 22.32 72 40C72 47.8 69.2 54.92 64.56 60.48Z" fill="black"/>
<path d="M40 16C32.28 16 26 22.28 26 30C26 37.72 32.28 44 40 44C47.72 44 54 37.72 54 30C54 22.28 47.72 16 40 16ZM40 36C36.68 36 34 33.32 34 30C34 26.68 36.68 24 40 24C43.32 24 46 26.68 46 30C46 33.32 43.32 36 40 36Z" fill="black"/>
</g>
<defs>
<clipPath id="clip0_363_1846">
<rect width="80" height="80" fill="white"/>
</clipPath>
</defs>
</svg>
