<svg width="96" height="96" viewBox="0 0 96 96" fill="none" xmlns="http://www.w3.org/2000/svg">
<g clip-path="url(#clip0_1040_4697)">
<path d="M62 4H30C24.48 4 20 8.48 20 14V82C20 87.52 24.48 92 30 92H62C67.52 92 72 87.52 72 82V14C72 8.48 67.52 4 62 4ZM46 88C42.68 88 40 85.32 40 82C40 78.68 42.68 76 46 76C49.32 76 52 78.68 52 82C52 85.32 49.32 88 46 88ZM64 72H28V16H64V72Z" fill="black"/>
</g>
<defs>
<clipPath id="clip0_1040_4697">
<rect width="96" height="96" fill="white"/>
</clipPath>
</defs>
</svg>
