<svg width="96" height="96" viewBox="0 0 96 96" fill="none" xmlns="http://www.w3.org/2000/svg">
<g clip-path="url(#clip0_643_824)">
<path d="M72 16H24C15.16 16 8 23.16 8 32V64C8 72.84 15.16 80 24 80H72C80.84 80 88 72.84 88 64V32C88 23.16 80.84 16 72 16ZM64.56 55.08C63.6 55.88 62.28 56.2 61.04 55.88L16.6 45C17.8 42.08 20.64 40 24 40H72C74.68 40 77.04 41.36 78.52 43.36L64.56 55.08ZM24 24H72C76.4 24 80 27.6 80 32V34.2C77.64 32.84 74.92 32 72 32H24C21.08 32 18.36 32.84 16 34.2V32C16 27.6 19.6 24 24 24Z" fill="black"/>
</g>
<defs>
<clipPath id="clip0_643_824">
<rect width="96" height="96" fill="white"/>
</clipPath>
</defs>
</svg>
